<?xml version="1.0" encoding="UTF-8"?>
<svg id="Layer_1" data-name="Layer 1" xmlns="http://www.w3.org/2000/svg" viewBox="0 0 841.89 595.28">
  <defs>
    <style>
      .cls-1 {
        fill: #fff;
      }
    </style>
  </defs>
  <g>
    <path class="cls-1" d="M225.93,310.76v-28.77h-12.69v-17.77h6.35c5.08,0,7.62-2.68,7.62-8.04v-15.61h20.31v23.65h18.05v17.77h-18.76v26.23c0,7.9,4.09,12.13,11.42,12.13h7.9v18.19h-12.27c-18.48,0-27.93-11-27.93-27.78Z"/>
    <path class="cls-1" d="M310.98,323.03c9.17,0,13.82-3.24,17.07-9.17l15.94,10.58c-5.78,8.46-15.37,15.94-33.57,15.94-24.12,0-39.77-16.78-39.77-38.93s17.07-38.93,38.36-38.93c23.98,0,38.22,18.76,38.22,37.38,0,3.24-.14,6.06-.42,7.9h-55.71c2.4,9.73,10.01,15.23,19.89,15.23Zm16.64-28.91c-1.97-9.73-8.46-15.8-18.05-15.8s-16.64,5.64-18.76,15.8h36.81Z"/>
    <path class="cls-1" d="M399.27,262.38v19.6c-12.69,0-20.17,5.78-20.17,15.66v40.9h-20.87v-74.33h19.75v7.19c5.08-5.36,12.55-9.03,21.3-9.03Z"/>
    <path class="cls-1" d="M482.2,264.21v74.33h-19.32v-8.18c-5.36,6.35-13.12,10.01-22.85,10.01-21.44,0-36.95-16.78-36.95-38.93s15.51-37.66,36.95-37.66c9.73,0,17.49,3.38,22.85,9.45v-9.03h19.32Zm-20.03,37.23c0-12.13-7.76-20.59-19.18-20.59s-19.18,8.74-19.18,20.59,8.04,20.45,19.18,20.45,19.18-8.32,19.18-20.45Z"/>
    <path class="cls-1" d="M576.27,301.45c0,22.14-15.52,38.93-36.95,38.93-9.59,0-17.35-3.53-22.85-9.59v7.76h-19.32v-97.92h20.87v30.08c5.5-5.22,12.98-8.18,21.86-8.18,21.44,0,36.39,16.64,36.39,38.93Zm-20.73,0c0-11.85-8.04-20.59-19.04-20.59-11.57,0-19.32,8.46-19.32,20.59s7.76,20.45,19.32,20.45,19.04-8.6,19.04-20.45Z"/>
    <path class="cls-1" d="M656.6,264.21c.24,0,.41,.24,.32,.46l-27.19,73.87-9.09,25.02c-.05,.14-.18,.23-.32,.23h-19.85c-.24,0-.41-.24-.32-.47l9.64-24.31c.09-.23-.08-.47-.32-.47h-6.16c-.15,0-.28-.09-.33-.23l-24.59-73.64c-.07-.22,.09-.45,.33-.45h20.84c.15,0,.29,.1,.33,.25l16.4,56.37c.09,.32,.55,.33,.66,.01l18.48-56.39c.05-.14,.18-.24,.33-.24h20.84Z"/>
    <path class="cls-1" d="M671.61,310.76v-28.77h-12.69v-17.77h6.35c5.08,0,7.62-2.68,7.62-8.04v-15.61h20.31v23.65h18.05v17.77h-18.76v26.23c0,7.9,4.09,12.13,11.42,12.13h7.9v18.19h-12.27c-18.48,0-27.93-11-27.93-27.78Z"/>
    <path class="cls-1" d="M756.66,323.03c9.17,0,13.82-3.24,17.07-9.17l15.94,10.58c-5.78,8.46-15.37,15.94-33.57,15.94-24.12,0-39.77-16.78-39.77-38.93s17.07-38.93,38.36-38.93c23.98,0,38.22,18.76,38.22,37.38,0,3.24-.14,6.06-.42,7.9h-55.71c2.4,9.73,10.01,15.23,19.89,15.23Zm16.64-28.91c-1.97-9.73-8.46-15.8-18.05-15.8s-16.64,5.64-18.76,15.8h36.81Z"/>
  </g>
  <g>
    <g>
      <circle class="cls-1" cx="82.5" cy="308.16" r="32.91"/>
      <rect class="cls-1" x="48.98" y="231.49" width="67.05" height="42.24" rx="15.67" ry="15.67"/>
    </g>
    <rect class="cls-1" x="126.07" y="231.86" width="52.62" height="109.25" rx="19.52" ry="19.52"/>
  </g>
</svg>