<svg width="745" height="133" viewBox="0 0 745 133" fill="none" xmlns="http://www.w3.org/2000/svg">
<path d="M177.93 79.76V50.99H165.24V33.22H171.59C176.67 33.22 179.21 30.54 179.21 25.18V9.57001H199.52V33.22H217.57V50.99H198.81V77.22C198.81 85.12 202.9 89.35 210.23 89.35H218.13V107.54H205.86C187.38 107.54 177.93 96.54 177.93 79.76Z" fill="#0A4C68"/>
<path d="M262.98 92.03C272.15 92.03 276.8 88.79 280.05 82.86L295.99 93.44C290.21 101.9 280.62 109.38 262.42 109.38C238.3 109.38 222.65 92.6 222.65 70.45C222.65 48.3 239.72 31.52 261.01 31.52C284.99 31.52 299.23 50.28 299.23 68.9C299.23 72.14 299.09 74.96 298.81 76.8H243.1C245.5 86.53 253.11 92.03 262.99 92.03H262.98ZM279.62 63.12C277.65 53.39 271.16 47.32 261.57 47.32C251.98 47.32 244.93 52.96 242.81 63.12H279.62Z" fill="#0A4C68"/>
<path d="M351.27 31.38V50.98C338.58 50.98 331.1 56.76 331.1 66.64V107.54H310.23V33.21H329.98V40.4C335.06 35.04 342.53 31.37 351.28 31.37L351.27 31.38Z" fill="#0A4C68"/>
<path d="M434.2 33.21V107.54H414.88V99.36C409.52 105.71 401.76 109.37 392.03 109.37C370.59 109.37 355.08 92.59 355.08 70.44C355.08 48.29 370.59 32.78 392.03 32.78C401.76 32.78 409.52 36.16 414.88 42.23V33.2H434.2V33.21ZM414.17 70.44C414.17 58.31 406.41 49.85 394.99 49.85C383.57 49.85 375.81 58.59 375.81 70.44C375.81 82.29 383.85 90.89 394.99 90.89C406.13 90.89 414.17 82.57 414.17 70.44Z" fill="#0A4C68"/>
<path d="M528.27 70.45C528.27 92.59 512.75 109.38 491.32 109.38C481.73 109.38 473.97 105.85 468.47 99.79V107.55H449.15V9.63H470.02V39.71C475.52 34.49 483 31.53 491.88 31.53C513.32 31.53 528.27 48.17 528.27 70.46V70.45ZM507.54 70.45C507.54 58.6 499.5 49.86 488.5 49.86C476.93 49.86 469.18 58.32 469.18 70.45C469.18 82.58 476.94 90.9 488.5 90.9C500.06 90.9 507.54 82.3 507.54 70.45Z" fill="#0A4C68"/>
<path d="M608.6 33.21C608.84 33.21 609.01 33.45 608.92 33.67L581.73 107.54L572.64 132.56C572.59 132.7 572.46 132.79 572.32 132.79H552.47C552.23 132.79 552.06 132.55 552.15 132.32L561.79 108.01C561.88 107.78 561.71 107.54 561.47 107.54H555.31C555.16 107.54 555.03 107.45 554.98 107.31L530.39 33.67C530.32 33.45 530.48 33.22 530.72 33.22H551.56C551.71 33.22 551.85 33.32 551.89 33.47L568.29 89.84C568.38 90.16 568.84 90.17 568.95 89.85L587.43 33.46C587.48 33.32 587.61 33.22 587.76 33.22H608.6V33.21Z" fill="#0A4C68"/>
<path d="M623.61 79.76V50.99H610.92V33.22H617.27C622.35 33.22 624.89 30.54 624.89 25.18V9.57001H645.2V33.22H663.25V50.99H644.49V77.22C644.49 85.12 648.58 89.35 655.91 89.35H663.81V107.54H651.54C633.06 107.54 623.61 96.54 623.61 79.76Z" fill="#0A4C68"/>
<path d="M708.66 92.03C717.83 92.03 722.48 88.79 725.73 82.86L741.67 93.44C735.89 101.9 726.3 109.38 708.1 109.38C683.98 109.38 668.33 92.6 668.33 70.45C668.33 48.3 685.4 31.52 706.69 31.52C730.67 31.52 744.91 50.28 744.91 68.9C744.91 72.14 744.77 74.96 744.49 76.8H688.78C691.18 86.53 698.79 92.03 708.67 92.03H708.66ZM725.3 63.12C723.33 53.39 716.84 47.32 707.25 47.32C697.66 47.32 690.61 52.96 688.49 63.12H725.3Z" fill="#0A4C68"/>
<path d="M34.5 110.07C52.6757 110.07 67.41 95.3357 67.41 77.16C67.41 58.9843 52.6757 44.25 34.5 44.25C16.3243 44.25 1.59003 58.9843 1.59003 77.16C1.59003 95.3357 16.3243 110.07 34.5 110.07Z" fill="#0A4C68"/>
<path d="M52.36 0.48999H16.65C7.99571 0.48999 0.980011 7.50569 0.980011 16.16V27.06C0.980011 35.7143 7.99571 42.73 16.65 42.73H52.36C61.0143 42.73 68.03 35.7143 68.03 27.06V16.16C68.03 7.50569 61.0143 0.48999 52.36 0.48999Z" fill="#0A4C68"/>
<path d="M111.17 0.859985H97.59C86.8094 0.859985 78.07 9.59939 78.07 20.38V90.59C78.07 101.371 86.8094 110.11 97.59 110.11H111.17C121.951 110.11 130.69 101.371 130.69 90.59V20.38C130.69 9.59939 121.951 0.859985 111.17 0.859985Z" fill="#0A4C68"/>
</svg>
