<svg width="744" height="133" viewBox="0 0 744 133" fill="none" xmlns="http://www.w3.org/2000/svg">
<path d="M176.95 79.27V50.5H164.26V32.73H170.61C175.69 32.73 178.23 30.05 178.23 24.69V9.08H198.54V32.73H216.59V50.5H197.83V76.73C197.83 84.63 201.92 88.86 209.25 88.86H217.15V107.05H204.88C186.4 107.05 176.95 96.05 176.95 79.27Z" fill="white"/>
<path d="M262 91.54C271.17 91.54 275.82 88.3 279.07 82.37L295.01 92.95C289.23 101.41 279.64 108.89 261.44 108.89C237.32 108.89 221.67 92.11 221.67 69.96C221.67 47.81 238.74 31.03 260.03 31.03C284.01 31.03 298.25 49.79 298.25 68.41C298.25 71.65 298.11 74.47 297.83 76.31H242.12C244.52 86.04 252.13 91.54 262.01 91.54H262ZM278.64 62.63C276.67 52.9 270.18 46.83 260.59 46.83C251 46.83 243.95 52.47 241.83 62.63H278.64Z" fill="white"/>
<path d="M350.29 30.89V50.49C337.6 50.49 330.12 56.27 330.12 66.15V107.05H309.25V32.72H329V39.91C334.08 34.55 341.55 30.88 350.3 30.88L350.29 30.89Z" fill="white"/>
<path d="M433.22 32.72V107.05H413.9V98.87C408.54 105.22 400.78 108.88 391.05 108.88C369.61 108.88 354.1 92.1 354.1 69.95C354.1 47.8 369.61 32.29 391.05 32.29C400.78 32.29 408.54 35.67 413.9 41.74V32.71H433.22V32.72ZM413.19 69.95C413.19 57.82 405.43 49.36 394.01 49.36C382.59 49.36 374.83 58.1 374.83 69.95C374.83 81.8 382.87 90.4 394.01 90.4C405.15 90.4 413.19 82.08 413.19 69.95Z" fill="white"/>
<path d="M527.29 69.96C527.29 92.1 511.77 108.89 490.34 108.89C480.75 108.89 472.99 105.36 467.49 99.3V107.06H448.17V9.14H469.04V39.22C474.54 34 482.02 31.04 490.9 31.04C512.34 31.04 527.29 47.68 527.29 69.97V69.96ZM506.56 69.96C506.56 58.11 498.52 49.37 487.52 49.37C475.95 49.37 468.2 57.83 468.2 69.96C468.2 82.09 475.96 90.41 487.52 90.41C499.08 90.41 506.56 81.81 506.56 69.96Z" fill="white"/>
<path d="M607.62 32.72C607.86 32.72 608.03 32.96 607.94 33.18L580.75 107.05L571.66 132.07C571.61 132.21 571.48 132.3 571.34 132.3H551.49C551.25 132.3 551.08 132.06 551.17 131.83L560.81 107.52C560.9 107.29 560.73 107.05 560.49 107.05H554.33C554.18 107.05 554.05 106.96 554 106.82L529.41 33.18C529.34 32.96 529.5 32.73 529.74 32.73H550.58C550.73 32.73 550.87 32.83 550.91 32.98L567.31 89.35C567.4 89.67 567.86 89.68 567.97 89.36L586.45 32.97C586.5 32.83 586.63 32.73 586.78 32.73H607.62V32.72Z" fill="white"/>
<path d="M622.63 79.27V50.5H609.94V32.73H616.29C621.37 32.73 623.91 30.05 623.91 24.69V9.08H644.22V32.73H662.27V50.5H643.51V76.73C643.51 84.63 647.6 88.86 654.93 88.86H662.83V107.05H650.56C632.08 107.05 622.63 96.05 622.63 79.27Z" fill="white"/>
<path d="M707.68 91.54C716.85 91.54 721.5 88.3 724.75 82.37L740.69 92.95C734.91 101.41 725.32 108.89 707.12 108.89C683 108.89 667.35 92.11 667.35 69.96C667.35 47.81 684.42 31.03 705.71 31.03C729.69 31.03 743.93 49.79 743.93 68.41C743.93 71.65 743.79 74.47 743.51 76.31H687.8C690.2 86.04 697.81 91.54 707.69 91.54H707.68ZM724.32 62.63C722.35 52.9 715.86 46.83 706.27 46.83C696.68 46.83 689.63 52.47 687.51 62.63H724.32Z" fill="white"/>
<path d="M33.52 109.58C51.6957 109.58 66.43 94.8457 66.43 76.67C66.43 58.4943 51.6957 43.76 33.52 43.76C15.3443 43.76 0.609985 58.4943 0.609985 76.67C0.609985 94.8457 15.3443 109.58 33.52 109.58Z" fill="white"/>
<path d="M51.38 0H15.67C7.0157 0 0 7.0157 0 15.67V26.57C0 35.2243 7.0157 42.24 15.67 42.24H51.38C60.0343 42.24 67.05 35.2243 67.05 26.57V15.67C67.05 7.0157 60.0343 0 51.38 0Z" fill="white"/>
<path d="M110.19 0.369995H96.61C85.8294 0.369995 77.09 9.1094 77.09 19.89V90.1C77.09 100.881 85.8294 109.62 96.61 109.62H110.19C120.971 109.62 129.71 100.881 129.71 90.1V19.89C129.71 9.1094 120.971 0.369995 110.19 0.369995Z" fill="white"/>
</svg>
