<svg width="140" height="50" viewBox="0 0 140 50" fill="none" xmlns="http://www.w3.org/2000/svg">
<g clip-path="url(#clip0_12_88)">
<path d="M33.4372 27.9792V22.5427H31.0392V19.1848H32.2392C33.1991 19.1848 33.6791 18.6784 33.6791 17.6656V14.7158H37.5169V19.1848H40.9278V22.5427H37.3828V27.4993C37.3828 28.9921 38.1556 29.7914 39.5408 29.7914H41.0336V33.2287H38.715C35.2229 33.2287 33.4372 31.1501 33.4372 27.9792Z" fill="#0A4C68"/>
<path d="M49.5086 30.2979C51.2414 30.2979 52.1201 29.6856 52.7343 28.5651L55.7463 30.5643C54.6541 32.163 52.842 33.5764 49.4028 33.5764C44.845 33.5764 41.8877 30.4056 41.8877 26.22C41.8877 22.0345 45.1133 18.8636 49.1364 18.8636C53.6677 18.8636 56.3586 22.4086 56.3586 25.9271C56.3586 26.5394 56.3321 27.0723 56.2792 27.42H45.752C46.2055 29.2586 47.6436 30.2979 49.5105 30.2979H49.5086ZM52.653 24.8349C52.2807 22.9963 51.0544 21.8493 49.2422 21.8493C47.43 21.8493 46.0978 22.915 45.6972 24.8349H52.653Z" fill="#0A4C68"/>
<path d="M66.1923 18.8372V22.5409C63.7943 22.5409 62.3809 23.6331 62.3809 25.5V33.2287H58.4372V19.183H62.1692V20.5416C63.1292 19.5288 64.5407 18.8353 66.1942 18.8353L66.1923 18.8372Z" fill="#0A4C68"/>
<path d="M81.8632 19.1829V33.2287H78.2124V31.6829C77.1995 32.8829 75.7332 33.5745 73.8945 33.5745C69.8431 33.5745 66.9123 30.4037 66.9123 26.2181C66.9123 22.0325 69.8431 19.1017 73.8945 19.1017C75.7332 19.1017 77.1995 19.7404 78.2124 20.8874V19.1811H81.8632V19.1829ZM78.0782 26.2181C78.0782 23.9259 76.6118 22.3273 74.4539 22.3273C72.2959 22.3273 70.8295 23.9789 70.8295 26.2181C70.8295 28.4573 72.3488 30.0824 74.4539 30.0824C76.5589 30.0824 78.0782 28.5102 78.0782 26.2181Z" fill="#0A4C68"/>
<path d="M99.639 26.22C99.639 30.4037 96.7063 33.5764 92.6567 33.5764C90.8446 33.5764 89.3782 32.9093 88.3389 31.7642V33.2306H84.6881V14.7272H88.6318V20.4112C89.6711 19.4248 91.0846 18.8655 92.7626 18.8655C96.814 18.8655 99.639 22.0099 99.639 26.2219V26.22ZM95.7217 26.22C95.7217 23.9808 94.2025 22.3292 92.1239 22.3292C89.9375 22.3292 88.4731 23.9279 88.4731 26.22C88.4731 28.5121 89.9394 30.0843 92.1239 30.0843C94.3083 30.0843 95.7217 28.4592 95.7217 26.22Z" fill="#0A4C68"/>
<path d="M114.819 19.1829C114.864 19.1829 114.896 19.2283 114.879 19.2699L109.741 33.2287L108.023 37.9565C108.014 37.983 107.989 38 107.963 38H104.212C104.167 38 104.134 37.9547 104.151 37.9112L105.973 33.3175C105.99 33.274 105.958 33.2287 105.913 33.2287H104.749C104.72 33.2287 104.696 33.2116 104.686 33.1852L100.04 19.2699C100.026 19.2283 100.057 19.1848 100.102 19.1848H104.04C104.068 19.1848 104.095 19.2037 104.102 19.2321L107.201 29.884C107.218 29.9445 107.305 29.9463 107.326 29.8859L110.818 19.2302C110.828 19.2037 110.852 19.1848 110.881 19.1848H114.819V19.1829Z" fill="#0A4C68"/>
<path d="M117.655 27.9792V22.5427H115.257V19.1848H116.457C117.417 19.1848 117.897 18.6784 117.897 17.6656V14.7158H121.735V19.1848H125.145V22.5427H121.6V27.4993C121.6 28.9921 122.373 29.7914 123.758 29.7914H125.251V33.2287H122.933C119.441 33.2287 117.655 31.1501 117.655 27.9792Z" fill="#0A4C68"/>
<path d="M133.726 30.2979C135.459 30.2979 136.338 29.6856 136.952 28.5651L139.964 30.5643C138.872 32.163 137.06 33.5764 133.621 33.5764C129.063 33.5764 126.105 30.4056 126.105 26.22C126.105 22.0345 129.331 18.8636 133.354 18.8636C137.885 18.8636 140.576 22.4086 140.576 25.9271C140.576 26.5394 140.55 27.0723 140.497 27.42H129.97C130.423 29.2586 131.861 30.2979 133.728 30.2979H133.726ZM136.871 24.8349C136.498 22.9963 135.272 21.8493 133.46 21.8493C131.648 21.8493 130.316 22.915 129.915 24.8349H136.871Z" fill="#0A4C68"/>
<path d="M6.33406 33.7067C9.76862 33.7067 12.5529 30.9225 12.5529 27.4879C12.5529 24.0534 9.76862 21.2691 6.33406 21.2691C2.8995 21.2691 0.115234 24.0534 0.115234 27.4879C0.115234 30.9225 2.8995 33.7067 6.33406 33.7067Z" fill="#0A4C68"/>
<path d="M9.709 13H2.96107C1.32572 13 0 14.3257 0 15.9611V18.0208C0 19.6561 1.32572 20.9819 2.96107 20.9819H9.709C11.3444 20.9819 12.6701 19.6561 12.6701 18.0208V15.9611C12.6701 14.3257 11.3444 13 9.709 13Z" fill="#0A4C68"/>
<path d="M20.822 13.0699H18.2558C16.2187 13.0699 14.5673 14.7214 14.5673 16.7585V30.0257C14.5673 32.0629 16.2187 33.7143 18.2558 33.7143H20.822C22.8591 33.7143 24.5106 32.0629 24.5106 30.0257V16.7585C24.5106 14.7214 22.8591 13.0699 20.822 13.0699Z" fill="#0A4C68"/>
</g>
<defs>
<clipPath id="clip0_12_88">
<rect width="140" height="50" fill="white"/>
</clipPath>
</defs>
</svg>
